<?xml version="1.0" standalone="no"?><!DOCTYPE svg PUBLIC "-//W3C//DTD SVG 1.1//EN" "http://www.w3.org/Graphics/SVG/1.1/DTD/svg11.dtd"><svg t="1722171011239" class="icon" viewBox="0 0 1024 1024" version="1.1" xmlns="http://www.w3.org/2000/svg" p-id="7432" xmlns:xlink="http://www.w3.org/1999/xlink" width="128" height="128"><path d="M790.72 763.776c44.704-34.624 73.28-85.792 73.28-142.72 0-104.192-94.944-188.672-212.064-188.672-117.088 0-212.032 84.48-212.032 188.704s94.944 188.736 212.032 188.736c24.224 0 47.552-3.68 69.248-10.336l6.208-1.024c4.064 0 7.776 1.344 11.264 3.52l46.432 28.608 4.096 1.408c3.904 0 7.04-3.392 7.04-7.552l-1.12-5.504-9.6-38.08-0.704-4.8a15.36 15.36 0 0 1 5.92-12.288zM414.464 224C273.92 224 160 325.376 160 450.496c0 68.224 34.24 129.664 87.904 171.2 4.32 3.232 7.136 8.64 7.136 14.72l-0.864 5.76-11.488 45.696-1.376 6.624c0 5.024 3.84 9.088 8.48 9.088l4.928-1.696L310.4 667.52c4.16-2.56 8.64-4.16 13.504-4.16l7.488 1.184c25.984 8 54.048 12.448 83.072 12.448l13.952-0.384a185.92 185.92 0 0 1-8.512-55.488c0-114.08 103.904-206.56 232.032-206.56l13.824 0.352C646.624 306.784 541.44 224 414.464 224z m166.784 366.912c-15.584 0-28.256-13.536-28.256-30.208 0-16.704 12.672-30.208 28.256-30.208 15.648 0 28.288 13.504 28.288 30.208 0 16.672-12.64 30.208-28.288 30.208z m141.408 0c-15.648 0-28.288-13.536-28.288-30.208 0-16.704 12.64-30.208 28.288-30.208 15.584 0 28.224 13.504 28.224 30.208 0 16.672-12.64 30.208-28.224 30.208zM329.6 414.24c-18.752 0-33.92-16.224-33.92-36.224 0-20.032 15.168-36.256 33.92-36.256 18.752 0 33.92 16.256 33.92 36.256s-15.168 36.224-33.92 36.224z m169.632 0c-18.752 0-33.92-16.224-33.92-36.224 0-20.032 15.168-36.256 33.92-36.256 18.752 0 33.92 16.256 33.92 36.256s-15.168 36.224-33.92 36.224z" fill="#000000" fill-opacity=".87" p-id="7433"></path></svg>